<svg width="480" height="24" viewBox="0 0 480 24" fill="none" xmlns="http://www.w3.org/2000/svg">
<path d="M19.5 3.75H4.5C4.10218 3.75 3.72064 3.90804 3.43934 4.18934C3.15804 4.47064 3 4.85218 3 5.25V10.7606C3 19.1616 10.1081 21.9487 11.5312 22.4222C11.8352 22.5256 12.1648 22.5256 12.4688 22.4222C13.8938 21.9487 21 19.1616 21 10.7606V5.25C21 4.85218 20.842 4.47064 20.5607 4.18934C20.2794 3.90804 19.8978 3.75 19.5 3.75ZM19.5 10.7616C19.5 18.1134 13.2797 20.5697 12 20.9972C10.7316 20.5744 4.5 18.12 4.5 10.7616V5.25H19.5V10.7616ZM7.71937 13.2806C7.57864 13.1399 7.49958 12.949 7.49958 12.75C7.49958 12.551 7.57864 12.3601 7.71937 12.2194C7.86011 12.0786 8.05098 11.9996 8.25 11.9996C8.44902 11.9996 8.63989 12.0786 8.78063 12.2194L10.5 13.9387L15.2194 9.21937C15.2891 9.14969 15.3718 9.09442 15.4628 9.0567C15.5539 9.01899 15.6515 8.99958 15.75 8.99958C15.8485 8.99958 15.9461 9.01899 16.0372 9.0567C16.1282 9.09442 16.2109 9.14969 16.2806 9.21937C16.3503 9.28906 16.4056 9.37178 16.4433 9.46283C16.481 9.55387 16.5004 9.65145 16.5004 9.75C16.5004 9.84855 16.481 9.94613 16.4433 10.0372C16.4056 10.1282 16.3503 10.2109 16.2806 10.2806L11.0306 15.5306C10.961 15.6004 10.8783 15.6557 10.7872 15.6934C10.6962 15.7312 10.5986 15.7506 10.5 15.7506C10.4014 15.7506 10.3038 15.7312 10.2128 15.6934C10.1217 15.6557 10.039 15.6004 9.96937 15.5306L7.71937 13.2806Z" fill="#07B87D" fill-opacity="0.64"/>
<path d="M37.664 5.784C38.3573 5.784 38.9547 5.88533 39.456 6.088C39.968 6.28 40.4747 6.584 40.976 7L40.08 7.928C39.6853 7.608 39.3067 7.37867 38.944 7.24C38.5813 7.10133 38.1547 7.032 37.664 7.032C37.0987 7.032 36.576 7.18667 36.096 7.496C35.6267 7.79467 35.2427 8.28 34.944 8.952C34.6453 9.61333 34.496 10.456 34.496 11.48C34.496 13.0267 34.7467 14.1573 35.248 14.872C35.76 15.5867 36.512 15.944 37.504 15.944C38.3147 15.944 39.0133 15.7787 39.6 15.448V12.12H37.648L37.472 10.888H41.104V16.216C39.9627 16.8667 38.7627 17.192 37.504 17.192C36.0533 17.192 34.9173 16.7067 34.096 15.736C33.2853 14.7653 32.88 13.3467 32.88 11.48C32.88 10.2853 33.0933 9.26133 33.52 8.408C33.9573 7.544 34.5387 6.89333 35.264 6.456C36 6.008 36.8 5.784 37.664 5.784ZM45.9978 5.976C47.6618 5.976 48.9951 6.36533 49.9978 7.144C51.0111 7.912 51.5178 9.34133 51.5178 11.432C51.5178 13.4693 51.0111 14.9093 49.9978 15.752C48.9951 16.584 47.7738 17 46.3338 17H43.6938V5.976H45.9978ZM45.2138 7.192V15.8H46.4458C47.4698 15.8 48.3018 15.4853 48.9418 14.856C49.5818 14.2267 49.9018 13.0853 49.9018 11.432C49.9018 10.2693 49.7364 9.37867 49.4058 8.76C49.0751 8.13067 48.6538 7.71467 48.1418 7.512C47.6298 7.29867 47.0271 7.192 46.3338 7.192H45.2138ZM56.8866 5.976C58.252 5.976 59.308 6.264 60.0546 6.84C60.8013 7.40533 61.1746 8.25333 61.1746 9.384C61.1746 10.5893 60.7853 11.4853 60.0066 12.072C59.228 12.6587 58.1933 12.952 56.9026 12.952H55.5106V17H53.9906V5.976H56.8866ZM56.8386 11.752C57.724 11.752 58.396 11.5813 58.8546 11.24C59.324 10.8987 59.5586 10.2853 59.5586 9.4C59.5586 8.61067 59.324 8.04 58.8546 7.688C58.396 7.336 57.7346 7.16 56.8706 7.16H55.5106V11.752H56.8386ZM66.5195 12.328H64.8075V17H63.2875V5.976H66.1835C67.5595 5.976 68.5995 6.23733 69.3035 6.76C70.0182 7.28267 70.3755 8.06133 70.3755 9.096C70.3755 9.864 70.1782 10.488 69.7835 10.968C69.3888 11.448 68.7915 11.8107 67.9915 12.056L70.9675 17H69.1595L66.5195 12.328ZM66.3435 11.16C67.1435 11.16 67.7462 11 68.1515 10.68C68.5568 10.3493 68.7595 9.82133 68.7595 9.096C68.7595 8.41333 68.5515 7.92267 68.1355 7.624C67.7302 7.31467 67.0742 7.16 66.1675 7.16H64.8075V11.16H66.3435ZM73.279 14.968C73.599 14.968 73.8657 15.0747 74.079 15.288C74.2923 15.5013 74.399 15.7627 74.399 16.072C74.399 16.4027 74.303 16.7813 74.111 17.208L73.039 19.656H71.983L72.623 17C72.4843 16.8933 72.3723 16.76 72.287 16.6C72.2123 16.44 72.175 16.264 72.175 16.072C72.175 15.7627 72.2817 15.5013 72.495 15.288C72.7083 15.0747 72.9697 14.968 73.279 14.968ZM87.2131 17V11.832H82.5731V17H81.0531V5.976H82.5731V10.584H87.2131V5.976H88.7331V17H87.2131ZM93.4481 5.976V17H91.9281V5.976H93.4481ZM99.5429 5.976C100.908 5.976 101.964 6.264 102.711 6.84C103.458 7.40533 103.831 8.25333 103.831 9.384C103.831 10.5893 103.442 11.4853 102.663 12.072C101.884 12.6587 100.85 12.952 99.5589 12.952H98.1669V17H96.6469V5.976H99.5429ZM99.4949 11.752C100.38 11.752 101.052 11.5813 101.511 11.24C101.98 10.8987 102.215 10.2853 102.215 9.4C102.215 8.61067 101.98 8.04 101.511 7.688C101.052 7.336 100.391 7.16 99.5269 7.16H98.1669V11.752H99.4949ZM110.863 17L110.031 14.232H105.855L105.023 17H103.487L107.023 5.976H108.943L112.463 17H110.863ZM106.223 13H109.663L107.951 7.24L106.223 13ZM120.035 17L119.203 14.232H115.027L114.195 17H112.659L116.195 5.976H118.115L121.635 17H120.035ZM115.395 13H118.835L117.123 7.24L115.395 13ZM133.169 15.032C133.169 15.3733 133.227 15.6293 133.345 15.8C133.462 15.96 133.638 16.0827 133.873 16.168L133.537 17.192C133.099 17.1387 132.747 17.016 132.481 16.824C132.214 16.632 132.017 16.3333 131.889 15.928C131.323 16.7707 130.486 17.192 129.377 17.192C128.545 17.192 127.889 16.9573 127.409 16.488C126.929 16.0187 126.689 15.4053 126.689 14.648C126.689 13.752 127.009 13.064 127.649 12.584C128.299 12.104 129.217 11.864 130.401 11.864H131.697V11.24C131.697 10.6427 131.553 10.216 131.265 9.96C130.977 9.704 130.534 9.576 129.937 9.576C129.318 9.576 128.561 9.72533 127.665 10.024L127.297 8.952C128.342 8.568 129.313 8.376 130.209 8.376C131.201 8.376 131.942 8.62133 132.433 9.112C132.923 9.592 133.169 10.28 133.169 11.176V15.032ZM129.713 16.088C130.555 16.088 131.217 15.6507 131.697 14.776V12.84H130.593C129.035 12.84 128.257 13.416 128.257 14.568C128.257 15.0693 128.379 15.448 128.625 15.704C128.87 15.96 129.233 16.088 129.713 16.088ZM140.16 8.376C140.928 8.376 141.525 8.60533 141.952 9.064C142.389 9.52267 142.608 10.152 142.608 10.952V17H141.136V11.16C141.136 10.5627 141.024 10.1413 140.8 9.896C140.576 9.65067 140.245 9.528 139.808 9.528C139.36 9.528 138.965 9.656 138.624 9.912C138.283 10.168 137.963 10.536 137.664 11.016V17H136.192V8.568H137.456L137.584 9.816C137.883 9.368 138.251 9.016 138.688 8.76C139.136 8.504 139.627 8.376 140.16 8.376ZM152.095 5.176V17H150.799L150.655 15.832C150.378 16.2587 150.031 16.5947 149.615 16.84C149.199 17.0747 148.735 17.192 148.223 17.192C147.22 17.192 146.436 16.7973 145.871 16.008C145.316 15.2187 145.039 14.1573 145.039 12.824C145.039 11.96 145.172 11.192 145.439 10.52C145.706 9.848 146.09 9.32533 146.591 8.952C147.092 8.568 147.679 8.376 148.351 8.376C149.215 8.376 149.972 8.72267 150.623 9.416V5L152.095 5.176ZM148.543 16.024C148.991 16.024 149.375 15.9227 149.695 15.72C150.015 15.5067 150.324 15.192 150.623 14.776V10.648C150.346 10.2853 150.047 10.0133 149.727 9.832C149.418 9.64 149.066 9.544 148.671 9.544C148.02 9.544 147.514 9.816 147.151 10.36C146.799 10.904 146.623 11.7147 146.623 12.792C146.623 13.88 146.788 14.6907 147.119 15.224C147.45 15.7573 147.924 16.024 148.543 16.024ZM162.532 8.376C163.716 8.376 164.633 8.77067 165.284 9.56C165.945 10.3493 166.276 11.4213 166.276 12.776C166.276 13.6507 166.126 14.424 165.828 15.096C165.529 15.7573 165.097 16.2747 164.532 16.648C163.966 17.0107 163.294 17.192 162.516 17.192C161.332 17.192 160.409 16.7973 159.748 16.008C159.086 15.2187 158.756 14.1467 158.756 12.792C158.756 11.9173 158.905 11.1493 159.204 10.488C159.502 9.816 159.934 9.29867 160.5 8.936C161.065 8.56267 161.742 8.376 162.532 8.376ZM162.532 9.56C161.07 9.56 160.34 10.6373 160.34 12.792C160.34 14.936 161.065 16.008 162.516 16.008C163.966 16.008 164.692 14.9307 164.692 12.776C164.692 10.632 163.972 9.56 162.532 9.56ZM172.964 16.616C172.409 17 171.78 17.192 171.076 17.192C170.361 17.192 169.801 16.9893 169.396 16.584C169.001 16.168 168.804 15.5707 168.804 14.792V9.704H167.332V8.568H168.804V6.664L170.276 6.488V8.568H172.276L172.116 9.704H170.276V14.728C170.276 15.1653 170.35 15.4853 170.5 15.688C170.66 15.88 170.921 15.976 171.284 15.976C171.614 15.976 171.988 15.864 172.404 15.64L172.964 16.616ZM178.457 8.376C179.225 8.376 179.822 8.60533 180.249 9.064C180.686 9.52267 180.905 10.152 180.905 10.952V17H179.433V11.16C179.433 10.5627 179.315 10.1413 179.081 9.896C178.857 9.65067 178.526 9.528 178.089 9.528C177.651 9.528 177.262 9.656 176.921 9.912C176.579 10.168 176.259 10.5307 175.961 11V17H174.489V5.192L175.961 5.032V9.736C176.622 8.82933 177.454 8.376 178.457 8.376ZM190.232 12.536C190.232 12.7813 190.221 13.032 190.2 13.288H184.824C184.888 14.216 185.122 14.8987 185.528 15.336C185.933 15.7733 186.456 15.992 187.096 15.992C187.501 15.992 187.874 15.9333 188.216 15.816C188.557 15.6987 188.914 15.512 189.288 15.256L189.928 16.136C189.032 16.84 188.05 17.192 186.984 17.192C185.81 17.192 184.893 16.808 184.232 16.04C183.581 15.272 183.256 14.216 183.256 12.872C183.256 11.9973 183.394 11.224 183.672 10.552C183.96 9.86933 184.365 9.336 184.888 8.952C185.421 8.568 186.045 8.376 186.76 8.376C187.88 8.376 188.738 8.744 189.336 9.48C189.933 10.216 190.232 11.2347 190.232 12.536ZM188.776 12.104C188.776 11.272 188.61 10.6373 188.28 10.2C187.949 9.76267 187.453 9.544 186.792 9.544C185.586 9.544 184.93 10.4293 184.824 12.2H188.776V12.104ZM196.247 8.376C196.545 8.376 196.823 8.408 197.079 8.472L196.807 9.912C196.551 9.848 196.305 9.816 196.071 9.816C195.548 9.816 195.127 10.008 194.807 10.392C194.487 10.776 194.236 11.3733 194.055 12.184V17H192.583V8.568H193.847L193.991 10.28C194.215 9.65067 194.519 9.176 194.903 8.856C195.287 8.536 195.735 8.376 196.247 8.376ZM200.808 8.376C201.384 8.376 201.901 8.456 202.36 8.616C202.819 8.776 203.256 9.016 203.672 9.336L203.048 10.264C202.664 10.0187 202.296 9.83733 201.944 9.72C201.603 9.60267 201.24 9.544 200.856 9.544C200.376 9.544 199.997 9.64533 199.72 9.848C199.443 10.04 199.304 10.3067 199.304 10.648C199.304 10.9893 199.432 11.256 199.688 11.448C199.955 11.64 200.429 11.8267 201.112 12.008C202.051 12.2427 202.749 12.5627 203.208 12.968C203.677 13.3733 203.912 13.928 203.912 14.632C203.912 15.464 203.587 16.0987 202.936 16.536C202.296 16.9733 201.512 17.192 200.584 17.192C199.304 17.192 198.243 16.824 197.4 16.088L198.184 15.192C198.899 15.736 199.688 16.008 200.552 16.008C201.107 16.008 201.544 15.896 201.864 15.672C202.195 15.4373 202.36 15.1227 202.36 14.728C202.36 14.44 202.301 14.2107 202.184 14.04C202.067 13.8587 201.864 13.704 201.576 13.576C201.288 13.4373 200.867 13.2933 200.312 13.144C199.416 12.9093 198.765 12.5947 198.36 12.2C197.965 11.8053 197.768 11.304 197.768 10.696C197.768 10.2587 197.896 9.864 198.152 9.512C198.419 9.14933 198.781 8.872 199.24 8.68C199.709 8.47733 200.232 8.376 200.808 8.376Z" fill="white" fill-opacity="0.64"/>
</svg>
