<svg width="721" height="641" viewBox="0 0 721 641" fill="none" xmlns="http://www.w3.org/2000/svg">
<path fill-rule="evenodd" clip-rule="evenodd" d="M346.021 246.523L382.486 180.084L316.43 62.2295C298.841 26.1836 261.938 1.29242 219.195 1.02011H1.34698C41.891 1.2773 77.1855 23.6975 95.7178 56.7681C95.7732 56.869 95.8287 56.9648 95.8841 57.0656L274.802 376.299L346.016 246.528L346.021 246.523Z" stroke="#227A5E" stroke-width="0.820513" stroke-miterlimit="2.61313" stroke-linejoin="round"/>
<path fill-rule="evenodd" clip-rule="evenodd" d="M835.419 291.474H1052.05C1011.19 291.288 975.649 268.61 957.167 235.187C957.152 235.157 957.131 235.121 957.116 235.091L857.552 57.4237L857.42 57.1867L857.38 57.1111L857.017 56.4656C838.404 23.4958 803.115 1.19159 762.601 1.00501H544.753C585.266 1.19159 620.561 23.4908 639.169 56.4656C639.285 56.6673 639.396 56.869 639.507 57.0707L739.248 235.041L739.323 235.182C757.775 268.55 793.231 291.207 833.997 291.469H835.424L835.419 291.474Z" stroke="#227A5E" stroke-width="0.820513" stroke-miterlimit="2.61313" stroke-linejoin="round"/>
<path fill-rule="evenodd" clip-rule="evenodd" d="M545.756 1.01004H544.748C503.77 1.19663 468.133 24.0102 449.696 57.6052L449.58 57.822L194.531 522.565C192.721 526.095 190.815 529.565 188.818 532.979L188.803 533.004C169.695 565.661 142.323 592.902 109.565 611.858C77.6193 630.335 40.5447 640.939 0.99915 641H218.489C283.541 641 341.937 612.488 381.85 567.274C391.18 556.71 399.495 545.238 406.651 533.004L667.428 57.822C667.469 57.7464 667.509 57.6708 667.555 57.5951C685.991 24.0001 721.623 1.18656 762.601 0.999976H545.761L545.756 1.01004Z" stroke="#227A5E" stroke-width="0.820513" stroke-miterlimit="2.61313" stroke-linejoin="round"/>
</svg>
