<?xml version="1.0" encoding="UTF-8" standalone="no"?>
<svg
   width="42"
   height="42"
   viewBox="0 0 42 42"
   fill="none"
   version="1.1"
   id="svg142"
   sodipodi:docname="icon.svg"
   inkscape:version="1.2.2 (b0a8486, 2022-12-01)"
   inkscape:export-filename="icon5x.png"
   inkscape:export-xdpi="1200"
   inkscape:export-ydpi="1200"
   xmlns:inkscape="http://www.inkscape.org/namespaces/inkscape"
   xmlns:sodipodi="http://sodipodi.sourceforge.net/DTD/sodipodi-0.dtd"
   xmlns="http://www.w3.org/2000/svg"
   xmlns:svg="http://www.w3.org/2000/svg">
  <defs
     id="defs146" />
  <sodipodi:namedview
     id="namedview144"
     pagecolor="#505050"
     bordercolor="#eeeeee"
     borderopacity="1"
     inkscape:showpageshadow="0"
     inkscape:pageopacity="0"
     inkscape:pagecheckerboard="0"
     inkscape:deskcolor="#505050"
     showgrid="false"
     inkscape:zoom="8.6527778"
     inkscape:cx="21.900482"
     inkscape:cy="15.775281"
     inkscape:window-width="1808"
     inkscape:window-height="1027"
     inkscape:window-x="0"
     inkscape:window-y="332"
     inkscape:window-maximized="0"
     inkscape:current-layer="svg142" />
  <rect
     style="fill:#0b291f;fill-opacity:1;stroke-width:6.86;stroke-linecap:square;stroke-opacity:0.639216;paint-order:markers stroke fill"
     id="rect367"
     width="42"
     height="42"
     x="0"
     y="0" />
  <g
     id="g480"
     transform="translate(-36.632482,3.3467086)">
    <path
       fill-rule="evenodd"
       clip-rule="evenodd"
       d="m 62.144982,17.515191 -0.9116,1.661 1.6514,2.9464 c 0.4397,0.9011 1.3623,1.5234 2.4309,1.5302 h 5.4462 c -1.0136,-0.0064 -1.896,-0.5669 -2.3593,-1.3937 -0.0014,-0.0025 -0.0027,-0.0049 -0.0041,-0.0074 l -4.473,-7.9809 -1.7803,3.2443 z"
       fill="#75e0bc"
       id="path132" />
    <path
       fill-rule="evenodd"
       clip-rule="evenodd"
       d="m 49.910082,16.391391 h -5.4157 c 1.02142,0.0047 1.90996,0.5716 2.372,1.4072 3.8e-4,8e-4 8.8e-4,0.0017 0.0013,0.0024 l 2.48912,4.4417 0.0033,0.0059 0.001,0.0019 0.0091,0.0162 c 0.46533,0.8242 1.34756,1.3818 2.3604,1.3865 h 5.44626 c -1.0129,-0.0047 -1.8953,-0.5622 -2.3605,-1.3865 -0.0028,-0.0051 -0.0056,-0.0101 -0.0084,-0.0152 l -2.49353,-4.4492 -0.0019,-0.0035 c -0.46129,-0.8342 -1.34768,-1.4007 -2.36683,-1.4072 h -0.03568 z"
       fill="#07b87d"
       id="path134" />
    <path
       fill-rule="evenodd"
       clip-rule="evenodd"
       d="m 57.151682,23.652991 h 0.0252 c 1.0244,-0.0046 1.9154,-0.575 2.3763,-1.4148 l 0.0029,-0.0055 6.3762,-11.6185 c 0.0452,-0.0883 0.0929,-0.175 0.1428,-0.2604 l 4e-4,-6e-4 c 0.4777,-0.81642 1.162,-1.49745 1.9809,-1.97134 0.7987,-0.46192 1.7256,-0.72705 2.7142,-0.72856 h -5.4373 c -1.6263,0 -3.0862,0.7128 -4.084,1.84314 -0.2332,0.26416 -0.4411,0.55096 -0.62,0.85676 l -6.51944,11.8795 c -10e-4,0.0019 -0.002,0.0038 -0.0031,0.0057 -0.46092,0.8399 -1.35172,1.4102 -2.37616,1.4149 h 5.42095 z"
       fill="#227a5e"
       id="path136" />
  </g>
</svg>
