<svg width="144" height="32" viewBox="0 0 144 32" fill="none" xmlns="http://www.w3.org/2000/svg">
<path fill-rule="evenodd" clip-rule="evenodd" d="M17.6506 17.8619L16.739 19.5229L18.3904 22.4693C18.8301 23.3704 19.7527 23.9927 20.8213 23.9995H26.2675C25.2539 23.9931 24.3715 23.4326 23.9082 22.6058C23.9068 22.6033 23.9055 22.6009 23.9041 22.5984L19.4311 14.6175L17.6508 17.8618L17.6506 17.8619Z" fill="#75E0BC"/>
<path fill-rule="evenodd" clip-rule="evenodd" d="M5.4157 16.7381H0C1.02142 16.7428 1.90996 17.3097 2.372 18.1453C2.37238 18.1461 2.37288 18.147 2.37326 18.1477L4.86238 22.5894L4.86566 22.5953L4.86667 22.5972L4.87574 22.6134C5.34107 23.4376 6.2233 23.9952 7.23614 23.9999H12.6824C11.6695 23.9952 10.7871 23.4377 10.3219 22.6134C10.3191 22.6083 10.3163 22.6033 10.3135 22.5982L7.81997 18.149L7.81808 18.1455C7.35679 17.3113 6.4704 16.7448 5.45125 16.7383H5.41557L5.4157 16.7381Z" fill="#07B87D"/>
<path fill-rule="evenodd" clip-rule="evenodd" d="M12.6573 23.9997H12.6825C13.7069 23.9951 14.5979 23.4247 15.0588 22.5849L15.0617 22.5794L21.4379 10.9609C21.4831 10.8726 21.5308 10.7859 21.5807 10.7005L21.5811 10.6999C22.0588 9.88348 22.7431 9.20245 23.562 8.72856C24.3607 8.26664 25.2876 8.00151 26.2762 8H20.8389C19.2126 8 17.7527 8.7128 16.7549 9.84314C16.5217 10.1073 16.3138 10.3941 16.1349 10.6999L9.61546 22.5794C9.61445 22.5813 9.61344 22.5832 9.61231 22.5851C9.15139 23.425 8.26059 23.9953 7.23615 24H12.6571L12.6573 23.9997Z" fill="#227A5E"/>
<path d="M39.5035 20.4474C39.5035 20.9088 39.565 21.2471 39.688 21.4624C39.8265 21.6777 40.0418 21.8392 40.334 21.9469L39.5727 24.323C38.8191 24.2614 38.204 24.1 37.7272 23.8385C37.2504 23.5617 36.8813 23.1311 36.6199 22.5467C35.8202 23.777 34.5898 24.3922 32.9289 24.3922C31.7139 24.3922 30.745 24.0384 30.0222 23.331C29.2994 22.6236 28.938 21.7008 28.938 20.5628C28.938 19.2248 29.4301 18.202 30.4144 17.4946C31.3987 16.7872 32.8212 16.4334 34.6821 16.4334H35.9278V15.9029C35.9278 15.18 35.774 14.6879 35.4665 14.4265C35.1589 14.1496 34.6206 14.0112 33.8516 14.0112C33.4518 14.0112 32.9673 14.0727 32.3983 14.1958C31.8293 14.3034 31.2449 14.4572 30.6451 14.6571L29.8146 12.258C30.5836 11.9658 31.3679 11.7428 32.1676 11.589C32.9827 11.4352 33.7363 11.3583 34.4284 11.3583C36.1816 11.3583 37.4657 11.7197 38.2808 12.4425C39.0959 13.1654 39.5035 14.2496 39.5035 15.6952V20.4474ZM33.9901 21.7854C34.8205 21.7854 35.4665 21.3932 35.9278 20.6089V18.4404H35.0281C34.1977 18.4404 33.5748 18.5865 33.1596 18.8787C32.7597 19.1709 32.5598 19.6246 32.5598 20.2398C32.5598 20.7319 32.6828 21.1164 32.9289 21.3932C33.1903 21.6547 33.5441 21.7854 33.9901 21.7854ZM48.866 11.3583C50.4039 11.3583 51.5497 11.9273 52.3032 13.0654C53.0568 14.2035 53.4336 15.7952 53.4336 17.8406C53.4336 19.1017 53.2337 20.2321 52.8338 21.2317C52.4493 22.216 51.888 22.9927 51.1498 23.5617C50.4116 24.1153 49.5504 24.3922 48.5661 24.3922C47.3358 24.3922 46.3438 23.9692 45.5902 23.1234V28.7291L41.9454 29.1213V11.7505H45.1519L45.3365 13.1115C45.8132 12.5117 46.3592 12.0734 46.9743 11.7966C47.5895 11.5044 48.2201 11.3583 48.866 11.3583ZM47.4588 21.7162C48.9198 21.7162 49.6503 20.4397 49.6503 17.8868C49.6503 16.4411 49.4888 15.4415 49.1659 14.8878C48.8429 14.3188 48.3585 14.0343 47.7126 14.0343C47.2973 14.0343 46.9051 14.1573 46.536 14.4034C46.1823 14.6495 45.867 15.0032 45.5902 15.4646V20.632C46.0824 21.3548 46.7052 21.7162 47.4588 21.7162ZM62.1693 11.3583C63.7072 11.3583 64.853 11.9273 65.6065 13.0654C66.3601 14.2035 66.7369 15.7952 66.7369 17.8406C66.7369 19.1017 66.537 20.2321 66.1371 21.2317C65.7526 22.216 65.1913 22.9927 64.4531 23.5617C63.7149 24.1153 62.8537 24.3922 61.8694 24.3922C60.6391 24.3922 59.6471 23.9692 58.8935 23.1234V28.7291L55.2487 29.1213V11.7505H58.4552L58.6398 13.1115C59.1165 12.5117 59.6625 12.0734 60.2776 11.7966C60.8928 11.5044 61.5234 11.3583 62.1693 11.3583ZM60.7621 21.7162C62.2231 21.7162 62.9536 20.4397 62.9536 17.8868C62.9536 16.4411 62.7921 15.4415 62.4692 14.8878C62.1462 14.3188 61.6618 14.0343 61.0158 14.0343C60.6006 14.0343 60.2084 14.1573 59.8393 14.4034C59.4856 14.6495 59.1703 15.0032 58.8935 15.4646V20.632C59.3857 21.3548 60.0085 21.7162 60.7621 21.7162ZM71.8046 24.3922C70.7435 24.3922 69.913 24.0923 69.3132 23.4925C68.7288 22.8773 68.4366 22.0084 68.4366 20.8857V6.88297L72.0815 6.4908V20.7473C72.0815 21.2548 72.2891 21.5086 72.7043 21.5086C72.9196 21.5086 73.1196 21.4701 73.3041 21.3932L74.0192 23.9769C73.3579 24.2538 72.6197 24.3922 71.8046 24.3922ZM81.473 24.0231C80.9808 25.6071 80.1734 26.8221 79.0508 27.6679C77.9435 28.5292 76.4517 29.0136 74.5754 29.1213L74.1832 26.5606C75.3521 26.4068 76.2133 26.1454 76.767 25.7763C77.336 25.4072 77.7897 24.8151 78.128 24H76.8823L73.1452 11.7505H77.0207L79.2122 21.6701L81.6114 11.7505H85.3716L81.473 24.0231Z" fill="white"/>
<path d="M92.1672 11.6813C93.5667 11.6813 94.6509 12.2195 95.4199 13.2961C96.1888 14.3726 96.5733 15.9105 96.5733 17.9098C96.5733 19.863 96.1658 21.4086 95.3507 22.5467C94.5509 23.6847 93.4283 24.2538 91.9826 24.2538C91.2598 24.2538 90.5985 24.0923 89.9987 23.7693C89.4143 23.4463 88.9222 23.0157 88.5223 22.4775L88.3839 24H87.2074V7.02138L88.5454 6.8599V13.6191C89.4989 12.3272 90.7061 11.6813 92.1672 11.6813ZM91.7289 23.1465C92.8208 23.1465 93.6589 22.7081 94.2434 21.8315C94.8431 20.9395 95.143 19.6323 95.143 17.9098C95.143 14.4957 94.0588 12.7886 91.8903 12.7886C91.1675 12.7886 90.5447 12.9731 90.0218 13.3422C89.4989 13.6959 89.0067 14.2035 88.5454 14.8648V21.2087C88.9298 21.8085 89.3912 22.2852 89.9295 22.6389C90.4678 22.9773 91.0676 23.1465 91.7289 23.1465ZM108.247 17.5177C108.247 17.856 108.232 18.179 108.201 18.4866H100.15C100.227 20.0552 100.596 21.2241 101.258 21.993C101.934 22.7466 102.819 23.1234 103.91 23.1234C104.541 23.1234 105.095 23.0311 105.571 22.8466C106.064 22.6466 106.594 22.339 107.163 21.9238L107.786 22.7774C107.186 23.2695 106.571 23.6386 105.94 23.8847C105.31 24.1307 104.61 24.2538 103.841 24.2538C102.242 24.2538 100.988 23.7078 100.081 22.6159C99.1736 21.524 98.72 20.0091 98.72 18.0713C98.72 16.7949 98.9122 15.6799 99.2967 14.7264C99.6965 13.7575 100.258 13.0116 100.981 12.4887C101.719 11.9504 102.572 11.6813 103.541 11.6813C105.079 11.6813 106.248 12.2042 107.048 13.25C107.848 14.2804 108.247 15.7029 108.247 17.5177ZM106.932 17.1024C106.932 15.7491 106.648 14.6956 106.079 13.942C105.525 13.1731 104.695 12.7886 103.587 12.7886C102.588 12.7886 101.78 13.1731 101.165 13.942C100.55 14.711 100.212 15.8798 100.15 17.4485H106.932V17.1024ZM116.624 23.4925C115.855 24 115.01 24.2538 114.087 24.2538C113.164 24.2538 112.441 23.9846 111.918 23.4463C111.395 22.8927 111.134 22.1007 111.134 21.0703V13.0193H109.104V11.935H111.134V9.05143L112.472 8.88995V11.935H115.586L115.425 13.0193H112.472V21.0011C112.472 21.7085 112.618 22.2391 112.91 22.5928C113.203 22.9311 113.649 23.1003 114.248 23.1003C114.863 23.1003 115.479 22.9235 116.094 22.5697L116.624 23.4925ZM123.564 23.4925C122.795 24 121.949 24.2538 121.026 24.2538C120.104 24.2538 119.381 23.9846 118.858 23.4463C118.335 22.8927 118.074 22.1007 118.074 21.0703V13.0193H116.044V11.935H118.074V9.05143L119.412 8.88995V11.935H122.526L122.364 13.0193H119.412V21.0011C119.412 21.7085 119.558 22.2391 119.85 22.5928C120.142 22.9311 120.588 23.1003 121.188 23.1003C121.803 23.1003 122.418 22.9235 123.033 22.5697L123.564 23.4925ZM133.301 17.5177C133.301 17.856 133.286 18.179 133.255 18.4866H125.204C125.281 20.0552 125.65 21.2241 126.311 21.993C126.988 22.7466 127.872 23.1234 128.964 23.1234C129.595 23.1234 130.149 23.0311 130.625 22.8466C131.117 22.6466 131.648 22.339 132.217 21.9238L132.84 22.7774C132.24 23.2695 131.625 23.6386 130.994 23.8847C130.364 24.1307 129.664 24.2538 128.895 24.2538C127.296 24.2538 126.042 23.7078 125.135 22.6159C124.228 21.524 123.774 20.0091 123.774 18.0713C123.774 16.7949 123.966 15.6799 124.351 14.7264C124.75 13.7575 125.312 13.0116 126.035 12.4887C126.773 11.9504 127.626 11.6813 128.595 11.6813C130.133 11.6813 131.302 12.2042 132.102 13.25C132.901 14.2804 133.301 15.7029 133.301 17.5177ZM131.986 17.1024C131.986 15.7491 131.702 14.6956 131.133 13.942C130.579 13.1731 129.749 12.7886 128.641 12.7886C127.642 12.7886 126.834 13.1731 126.219 13.942C125.604 14.711 125.266 15.8798 125.204 17.4485H131.986V17.1024ZM140.871 11.6813C141.348 11.6813 141.748 11.7274 142.071 11.8197L141.817 13.0885C141.478 12.9962 141.125 12.9501 140.756 12.9501C139.94 12.9501 139.279 13.25 138.772 13.8497C138.28 14.4341 137.864 15.3569 137.526 16.618V24H136.188V11.935H137.341L137.457 14.6341C137.78 13.6344 138.218 12.8962 138.772 12.4195C139.341 11.9273 140.04 11.6813 140.871 11.6813Z" fill="white" fill-opacity="0.64"/>
</svg>
